<?xml version="1.0" standalone="no"?>
<!DOCTYPE svg PUBLIC "-//W3C//DTD SVG 20010904//EN"
 "http://www.w3.org/TR/2001/REC-SVG-20010904/DTD/svg10.dtd">
<svg version="1.0" xmlns="http://www.w3.org/2000/svg"
 width="626.000000pt" height="418.000000pt" viewBox="0 0 626.000000 418.000000"
 preserveAspectRatio="xMidYMid meet">

<g transform="translate(0.000000,418.000000) scale(0.100000,-0.100000)"
fill="#000000" stroke="none">
<path d="M452 1873 l3 -1448 70 0 70 0 3 685 2 686 45 44 c24 24 46 42 48 39
2 -2 17 -33 34 -69 18 -36 101 -207 185 -380 85 -173 191 -391 237 -485 45
-93 121 -249 169 -345 l87 -175 59 -3 c116 -6 114 -13 29 160 -71 143 -147
298 -333 683 -43 88 -139 285 -214 439 -75 153 -136 283 -136 290 0 6 126 137
279 290 154 154 278 283 275 288 -3 4 -13 8 -22 8 -9 0 -177 -160 -372 -355
-195 -195 -358 -355 -362 -355 -5 0 -8 326 -8 725 l0 725 -75 0 -75 0 2 -1447z"/>
<path d="M5380 3249 c-131 -61 -198 -92 -340 -157 -47 -21 -110 -50 -140 -65
-30 -14 -99 -46 -153 -71 -55 -25 -97 -49 -95 -54 1 -4 14 -33 27 -65 14 -31
30 -57 37 -57 6 0 58 22 115 49 57 27 248 115 424 196 176 81 322 149 324 151
8 7 -52 134 -63 133 -6 0 -67 -27 -136 -60z"/>
<path d="M3657 2564 c-213 -66 -387 -330 -469 -711 -21 -97 -23 -134 -23 -353
1 -228 3 -254 27 -367 75 -338 218 -570 418 -674 39 -21 59 -24 155 -24 100 0
115 2 160 26 220 117 380 409 429 784 25 186 30 296 14 306 -7 5 -145 9 -305
9 -286 0 -293 0 -293 -20 0 -11 6 -21 13 -22 34 -4 67 -5 255 -7 l202 -1 -6
-117 c-7 -134 -35 -322 -65 -433 -56 -207 -130 -345 -231 -434 -122 -107 -234
-100 -357 23 -103 103 -172 249 -226 476 -33 138 -47 281 -47 475 0 202 15
339 51 490 67 272 185 472 313 530 137 62 283 -16 392 -212 l48 -88 49 0 c34
0 49 4 49 13 0 27 -101 166 -160 221 -122 113 -259 151 -393 110z"/>
<path d="M4662 1503 l3 -1078 450 -2 c263 -2 456 1 464 6 12 8 12 12 2 25 -12
14 -60 16 -392 16 l-379 0 0 520 0 520 368 0 c202 0 377 3 390 6 25 7 29 29 6
38 -9 3 -184 6 -390 6 l-374 0 0 490 0 490 388 2 c336 3 387 5 387 18 0 13
-59 15 -463 18 l-462 2 2 -1077z"/>
<path d="M2346 2539 c-3 -8 -42 -171 -86 -364 -45 -192 -90 -388 -101 -435
-11 -47 -29 -123 -40 -170 -11 -47 -24 -103 -29 -125 -34 -147 -54 -230 -71
-302 -10 -46 -28 -120 -38 -165 -57 -245 -105 -449 -116 -495 -11 -45 -11 -53
2 -57 24 -10 31 1 43 62 6 31 18 82 26 112 7 30 34 145 59 255 25 110 54 236
65 280 10 44 29 123 41 175 12 52 27 118 34 145 l12 50 154 0 153 0 32 -135
c41 -170 66 -271 104 -435 113 -475 120 -503 133 -508 7 -2 38 -5 70 -6 43 -2
59 2 63 13 3 8 -8 70 -25 138 -17 68 -42 173 -56 233 -14 61 -35 148 -46 195
-11 47 -29 121 -39 165 -10 44 -32 136 -49 205 -53 223 -134 563 -151 640 -10
41 -37 154 -60 250 -23 96 -47 198 -52 225 -12 55 -25 77 -32 54z m-33 -436
c3 -16 15 -66 26 -113 21 -86 52 -220 76 -320 7 -30 16 -67 20 -82 l7 -28
-141 0 c-78 0 -141 3 -141 6 0 4 4 23 10 43 5 20 18 74 29 121 11 47 37 158
57 247 21 89 41 160 45 158 4 -3 9 -17 12 -32z"/>
</g>
</svg>
